<svg width="33" height="31" viewBox="0 0 33 31" fill="none" xmlns="http://www.w3.org/2000/svg">
<path fill-rule="evenodd" clip-rule="evenodd" d="M8.54848 3.52837C8.50435 1.5255 7.07209 0 4.74631 0C2.42054 0 0.900024 1.5255 0.900024 3.52837C0.900024 5.48975 2.3756 7.05918 4.65806 7.05918H4.70151C7.07209 7.05918 8.54848 5.48975 8.54848 3.52837ZM8.1007 9.84731H1.30205V30.2744H8.1007V9.84731ZM24.7914 9.36764C29.2653 9.36764 32.6193 12.2878 32.6193 18.5622L32.619 30.2745H25.8206V19.3459C25.8206 16.6009 24.8368 14.7278 22.3757 14.7278C20.4974 14.7278 19.3786 15.9905 18.8873 17.2102C18.7075 17.6473 18.6634 18.2563 18.6634 18.8668V30.275H11.8639C11.8639 30.275 11.9535 11.7646 11.8639 9.84785H18.6634V12.7412C19.5657 11.3503 21.1818 9.36764 24.7914 9.36764Z" fill="#E5E5E5"/>
</svg>
