<svg width="30" height="23" viewBox="0 0 30 23" fill="none" xmlns="http://www.w3.org/2000/svg">
<path fill-rule="evenodd" clip-rule="evenodd" d="M14.5667 6.11836L14.6317 7.11317L13.5479 6.99136C9.60276 6.52441 6.15617 4.94082 3.22982 2.28122L1.79916 0.961565L1.43066 1.93608C0.6503 4.10843 1.14886 6.40259 2.77461 7.94557C3.64168 8.79827 3.44659 8.92008 1.9509 8.41253C1.43066 8.25011 0.975449 8.12829 0.932096 8.1892C0.78036 8.33132 1.3006 10.1788 1.71246 10.9097C2.27605 11.9248 3.42491 12.9196 4.68216 13.5084L5.74431 13.9754L4.48707 13.9957C3.27317 13.9957 3.22982 14.016 3.35988 14.4423C3.79341 15.762 5.50587 17.1628 7.41342 17.7719L8.75737 18.1983L7.58683 18.8479C5.8527 19.7818 3.81509 20.3097 1.77749 20.3503C0.802036 20.3706 0 20.4518 0 20.5127C0 20.7157 2.64455 21.8527 4.18359 22.2993C8.80072 23.619 14.2849 23.0505 18.4035 20.797C21.3298 19.1931 24.2562 16.0056 25.6218 12.9196C26.3588 11.2752 27.0958 8.27041 27.0958 6.82894C27.0958 5.89503 27.1608 5.77322 28.3747 4.65659C29.0901 4.00692 29.762 3.29633 29.8921 3.09331C30.1089 2.70757 30.0872 2.70757 28.9817 3.05271C27.1392 3.66178 26.8791 3.58057 27.7895 2.66696C28.4614 2.01729 29.2635 0.839751 29.2635 0.494611C29.2635 0.433704 28.9383 0.535215 28.5698 0.717937C28.1797 0.92096 27.3126 1.2255 26.6623 1.40822L25.4917 1.75336L24.4296 1.08338C23.8443 0.717937 23.0206 0.31189 22.5871 0.190076C21.4816 -0.0941572 19.7908 -0.0535525 18.7937 0.271285C16.0841 1.18489 14.3716 3.53996 14.5667 6.11836Z" fill="#E5E5E5"/>
</svg>
